<mxfile host="Electron" modified="2024-05-25T08:08:08.151Z" agent="Mozilla/5.0 (Windows NT 10.0; Win64; x64) AppleWebKit/537.36 (KHTML, like Gecko) draw.io/24.2.5 Chrome/120.0.6099.109 Electron/28.1.0 Safari/537.36" etag="iM2W07OcWPzhK9wc7EaP" version="24.2.5" type="device">
  <diagram name="第 1 页" id="1oCqTrLppgWgWZjxrMQB">
    <mxGraphModel dx="2083" dy="1223" grid="1" gridSize="10" guides="1" tooltips="1" connect="1" arrows="1" fold="1" page="1" pageScale="1" pageWidth="827" pageHeight="1169" math="0" shadow="0">
      <root>
        <mxCell id="0" />
        <mxCell id="1" parent="0" />
        <mxCell id="T_Ptdm1HrB9L-p87L4nu-9" style="rounded=0;orthogonalLoop=1;jettySize=auto;html=1;exitX=0.5;exitY=0.5;exitDx=0;exitDy=0;exitPerimeter=0;" parent="1" source="T_Ptdm1HrB9L-p87L4nu-4" target="T_Ptdm1HrB9L-p87L4nu-10" edge="1">
          <mxGeometry relative="1" as="geometry">
            <mxPoint x="309" y="705" as="targetPoint" />
          </mxGeometry>
        </mxCell>
        <mxCell id="T_Ptdm1HrB9L-p87L4nu-11" style="rounded=0;orthogonalLoop=1;jettySize=auto;html=1;exitX=0.5;exitY=0.5;exitDx=0;exitDy=0;exitPerimeter=0;" parent="1" source="T_Ptdm1HrB9L-p87L4nu-4" target="T_Ptdm1HrB9L-p87L4nu-12" edge="1">
          <mxGeometry relative="1" as="geometry">
            <mxPoint x="144" y="795" as="targetPoint" />
          </mxGeometry>
        </mxCell>
        <mxCell id="T_Ptdm1HrB9L-p87L4nu-16" style="rounded=0;orthogonalLoop=1;jettySize=auto;html=1;exitX=0.5;exitY=0.5;exitDx=0;exitDy=0;exitPerimeter=0;" parent="1" source="T_Ptdm1HrB9L-p87L4nu-4" target="T_Ptdm1HrB9L-p87L4nu-17" edge="1">
          <mxGeometry relative="1" as="geometry">
            <mxPoint x="369" y="315" as="targetPoint" />
          </mxGeometry>
        </mxCell>
        <mxCell id="T_Ptdm1HrB9L-p87L4nu-4" value="Actor" style="shape=umlActor;verticalLabelPosition=bottom;verticalAlign=top;html=1;outlineConnect=0;" parent="1" vertex="1">
          <mxGeometry x="129" y="465" width="30" height="60" as="geometry" />
        </mxCell>
        <mxCell id="1SKHvmBTWvtFecMXki6V-5" style="rounded=0;orthogonalLoop=1;jettySize=auto;html=1;exitX=0;exitY=0.5;exitDx=0;exitDy=0;entryX=1;entryY=0;entryDx=0;entryDy=0;" edge="1" parent="1" source="T_Ptdm1HrB9L-p87L4nu-5" target="T_Ptdm1HrB9L-p87L4nu-6">
          <mxGeometry relative="1" as="geometry" />
        </mxCell>
        <mxCell id="T_Ptdm1HrB9L-p87L4nu-5" value="注册摄像机" style="ellipse;whiteSpace=wrap;html=1;" parent="1" vertex="1">
          <mxGeometry x="579" y="230" width="120" height="80" as="geometry" />
        </mxCell>
        <mxCell id="T_Ptdm1HrB9L-p87L4nu-6" value="编辑摄像机" style="ellipse;whiteSpace=wrap;html=1;" parent="1" vertex="1">
          <mxGeometry x="319" y="370" width="120" height="80" as="geometry" />
        </mxCell>
        <mxCell id="T_Ptdm1HrB9L-p87L4nu-8" value="" style="endArrow=classic;html=1;rounded=0;exitX=0.5;exitY=0.5;exitDx=0;exitDy=0;exitPerimeter=0;entryX=0;entryY=0.5;entryDx=0;entryDy=0;" parent="1" source="T_Ptdm1HrB9L-p87L4nu-4" target="T_Ptdm1HrB9L-p87L4nu-6" edge="1">
          <mxGeometry width="50" height="50" relative="1" as="geometry">
            <mxPoint x="209" y="535" as="sourcePoint" />
            <mxPoint x="299" y="595" as="targetPoint" />
          </mxGeometry>
        </mxCell>
        <mxCell id="T_Ptdm1HrB9L-p87L4nu-10" value="获取摄像机&lt;br&gt;火灾&lt;span style=&quot;background-color: initial;&quot;&gt;检测结果&lt;/span&gt;" style="ellipse;whiteSpace=wrap;html=1;" parent="1" vertex="1">
          <mxGeometry x="319" y="540" width="120" height="80" as="geometry" />
        </mxCell>
        <mxCell id="T_Ptdm1HrB9L-p87L4nu-12" value="获取着火点中心" style="ellipse;whiteSpace=wrap;html=1;" parent="1" vertex="1">
          <mxGeometry x="319" y="710" width="120" height="80" as="geometry" />
        </mxCell>
        <mxCell id="T_Ptdm1HrB9L-p87L4nu-14" style="edgeStyle=orthogonalEdgeStyle;rounded=0;orthogonalLoop=1;jettySize=auto;html=1;exitX=0.5;exitY=1;exitDx=0;exitDy=0;" parent="1" source="T_Ptdm1HrB9L-p87L4nu-13" target="T_Ptdm1HrB9L-p87L4nu-15" edge="1">
          <mxGeometry relative="1" as="geometry">
            <mxPoint x="990" y="400" as="targetPoint" />
          </mxGeometry>
        </mxCell>
        <mxCell id="T_Ptdm1HrB9L-p87L4nu-13" value="注册摄像机" style="rounded=0;whiteSpace=wrap;html=1;" parent="1" vertex="1">
          <mxGeometry x="930" y="240" width="120" height="60" as="geometry" />
        </mxCell>
        <mxCell id="T_Ptdm1HrB9L-p87L4nu-18" style="edgeStyle=orthogonalEdgeStyle;rounded=0;orthogonalLoop=1;jettySize=auto;html=1;exitX=0.5;exitY=1;exitDx=0;exitDy=0;" parent="1" source="T_Ptdm1HrB9L-p87L4nu-15" target="T_Ptdm1HrB9L-p87L4nu-19" edge="1">
          <mxGeometry relative="1" as="geometry">
            <mxPoint x="990" y="530" as="targetPoint" />
          </mxGeometry>
        </mxCell>
        <mxCell id="T_Ptdm1HrB9L-p87L4nu-15" value="点击界面" style="rounded=0;whiteSpace=wrap;html=1;" parent="1" vertex="1">
          <mxGeometry x="930" y="370" width="120" height="60" as="geometry" />
        </mxCell>
        <mxCell id="T_Ptdm1HrB9L-p87L4nu-17" value="登录" style="ellipse;whiteSpace=wrap;html=1;" parent="1" vertex="1">
          <mxGeometry x="330" y="60" width="120" height="80" as="geometry" />
        </mxCell>
        <mxCell id="T_Ptdm1HrB9L-p87L4nu-20" style="edgeStyle=orthogonalEdgeStyle;rounded=0;orthogonalLoop=1;jettySize=auto;html=1;exitX=0.5;exitY=1;exitDx=0;exitDy=0;" parent="1" source="T_Ptdm1HrB9L-p87L4nu-19" target="T_Ptdm1HrB9L-p87L4nu-21" edge="1">
          <mxGeometry relative="1" as="geometry">
            <mxPoint x="990" y="660" as="targetPoint" />
          </mxGeometry>
        </mxCell>
        <mxCell id="T_Ptdm1HrB9L-p87L4nu-19" value="输入基本信息" style="rounded=0;whiteSpace=wrap;html=1;" parent="1" vertex="1">
          <mxGeometry x="930" y="520" width="120" height="60" as="geometry" />
        </mxCell>
        <mxCell id="T_Ptdm1HrB9L-p87L4nu-21" value="点击确定" style="rounded=0;whiteSpace=wrap;html=1;" parent="1" vertex="1">
          <mxGeometry x="930" y="630" width="120" height="60" as="geometry" />
        </mxCell>
        <mxCell id="T_Ptdm1HrB9L-p87L4nu-22" style="edgeStyle=orthogonalEdgeStyle;rounded=0;orthogonalLoop=1;jettySize=auto;html=1;exitX=0.5;exitY=1;exitDx=0;exitDy=0;" parent="1" source="T_Ptdm1HrB9L-p87L4nu-23" target="T_Ptdm1HrB9L-p87L4nu-25" edge="1">
          <mxGeometry relative="1" as="geometry">
            <mxPoint x="1230" y="400" as="targetPoint" />
          </mxGeometry>
        </mxCell>
        <mxCell id="T_Ptdm1HrB9L-p87L4nu-23" value="修改摄像机" style="rounded=0;whiteSpace=wrap;html=1;" parent="1" vertex="1">
          <mxGeometry x="1155" y="240" width="120" height="60" as="geometry" />
        </mxCell>
        <mxCell id="T_Ptdm1HrB9L-p87L4nu-24" style="edgeStyle=orthogonalEdgeStyle;rounded=0;orthogonalLoop=1;jettySize=auto;html=1;exitX=0.5;exitY=1;exitDx=0;exitDy=0;" parent="1" source="T_Ptdm1HrB9L-p87L4nu-25" target="T_Ptdm1HrB9L-p87L4nu-27" edge="1">
          <mxGeometry relative="1" as="geometry">
            <mxPoint x="1215" y="530" as="targetPoint" />
          </mxGeometry>
        </mxCell>
        <mxCell id="T_Ptdm1HrB9L-p87L4nu-25" value="点击标记" style="rounded=0;whiteSpace=wrap;html=1;" parent="1" vertex="1">
          <mxGeometry x="1155" y="370" width="120" height="60" as="geometry" />
        </mxCell>
        <mxCell id="T_Ptdm1HrB9L-p87L4nu-26" style="edgeStyle=orthogonalEdgeStyle;rounded=0;orthogonalLoop=1;jettySize=auto;html=1;exitX=0.5;exitY=1;exitDx=0;exitDy=0;" parent="1" source="T_Ptdm1HrB9L-p87L4nu-27" target="T_Ptdm1HrB9L-p87L4nu-28" edge="1">
          <mxGeometry relative="1" as="geometry">
            <mxPoint x="1215" y="660" as="targetPoint" />
          </mxGeometry>
        </mxCell>
        <mxCell id="T_Ptdm1HrB9L-p87L4nu-27" value="输入基本信息" style="rounded=0;whiteSpace=wrap;html=1;" parent="1" vertex="1">
          <mxGeometry x="1155" y="520" width="120" height="60" as="geometry" />
        </mxCell>
        <mxCell id="T_Ptdm1HrB9L-p87L4nu-28" value="点击确定" style="rounded=0;whiteSpace=wrap;html=1;" parent="1" vertex="1">
          <mxGeometry x="1155" y="630" width="120" height="60" as="geometry" />
        </mxCell>
        <mxCell id="1SKHvmBTWvtFecMXki6V-4" style="rounded=0;orthogonalLoop=1;jettySize=auto;html=1;exitX=0;exitY=0.5;exitDx=0;exitDy=0;entryX=1;entryY=0.5;entryDx=0;entryDy=0;" edge="1" parent="1" source="1SKHvmBTWvtFecMXki6V-1" target="T_Ptdm1HrB9L-p87L4nu-6">
          <mxGeometry relative="1" as="geometry" />
        </mxCell>
        <mxCell id="1SKHvmBTWvtFecMXki6V-1" value="删除摄像机" style="ellipse;whiteSpace=wrap;html=1;" vertex="1" parent="1">
          <mxGeometry x="579" y="370" width="120" height="80" as="geometry" />
        </mxCell>
        <mxCell id="1SKHvmBTWvtFecMXki6V-3" style="rounded=0;orthogonalLoop=1;jettySize=auto;html=1;exitX=0;exitY=0.5;exitDx=0;exitDy=0;entryX=1;entryY=1;entryDx=0;entryDy=0;" edge="1" parent="1" source="1SKHvmBTWvtFecMXki6V-2" target="T_Ptdm1HrB9L-p87L4nu-6">
          <mxGeometry relative="1" as="geometry" />
        </mxCell>
        <mxCell id="1SKHvmBTWvtFecMXki6V-2" value="编辑摄像机信息" style="ellipse;whiteSpace=wrap;html=1;" vertex="1" parent="1">
          <mxGeometry x="579" y="510" width="120" height="80" as="geometry" />
        </mxCell>
        <mxCell id="1SKHvmBTWvtFecMXki6V-6" style="edgeStyle=orthogonalEdgeStyle;rounded=0;orthogonalLoop=1;jettySize=auto;html=1;exitX=0.5;exitY=1;exitDx=0;exitDy=0;" edge="1" source="1SKHvmBTWvtFecMXki6V-7" target="1SKHvmBTWvtFecMXki6V-9" parent="1">
          <mxGeometry relative="1" as="geometry">
            <mxPoint x="1440" y="400" as="targetPoint" />
          </mxGeometry>
        </mxCell>
        <mxCell id="1SKHvmBTWvtFecMXki6V-7" value="删除摄像机" style="rounded=0;whiteSpace=wrap;html=1;" vertex="1" parent="1">
          <mxGeometry x="1380" y="240" width="120" height="60" as="geometry" />
        </mxCell>
        <mxCell id="1SKHvmBTWvtFecMXki6V-8" style="edgeStyle=orthogonalEdgeStyle;rounded=0;orthogonalLoop=1;jettySize=auto;html=1;exitX=0.5;exitY=1;exitDx=0;exitDy=0;" edge="1" source="1SKHvmBTWvtFecMXki6V-9" target="1SKHvmBTWvtFecMXki6V-11" parent="1">
          <mxGeometry relative="1" as="geometry">
            <mxPoint x="1440" y="530" as="targetPoint" />
          </mxGeometry>
        </mxCell>
        <mxCell id="1SKHvmBTWvtFecMXki6V-9" value="点击标记" style="rounded=0;whiteSpace=wrap;html=1;" vertex="1" parent="1">
          <mxGeometry x="1380" y="370" width="120" height="60" as="geometry" />
        </mxCell>
        <mxCell id="1SKHvmBTWvtFecMXki6V-10" style="edgeStyle=orthogonalEdgeStyle;rounded=0;orthogonalLoop=1;jettySize=auto;html=1;exitX=0.5;exitY=1;exitDx=0;exitDy=0;" edge="1" source="1SKHvmBTWvtFecMXki6V-11" target="1SKHvmBTWvtFecMXki6V-12" parent="1">
          <mxGeometry relative="1" as="geometry">
            <mxPoint x="1440" y="660" as="targetPoint" />
          </mxGeometry>
        </mxCell>
        <mxCell id="1SKHvmBTWvtFecMXki6V-11" value="删除摄像机" style="rounded=0;whiteSpace=wrap;html=1;" vertex="1" parent="1">
          <mxGeometry x="1380" y="520" width="120" height="60" as="geometry" />
        </mxCell>
        <mxCell id="1SKHvmBTWvtFecMXki6V-12" value="点击确定" style="rounded=0;whiteSpace=wrap;html=1;" vertex="1" parent="1">
          <mxGeometry x="1380" y="630" width="120" height="60" as="geometry" />
        </mxCell>
        <mxCell id="1SKHvmBTWvtFecMXki6V-14" style="edgeStyle=orthogonalEdgeStyle;rounded=0;orthogonalLoop=1;jettySize=auto;html=1;exitX=0.5;exitY=1;exitDx=0;exitDy=0;" edge="1" parent="1" source="1SKHvmBTWvtFecMXki6V-13" target="1SKHvmBTWvtFecMXki6V-15">
          <mxGeometry relative="1" as="geometry">
            <mxPoint x="1110" y="910" as="targetPoint" />
          </mxGeometry>
        </mxCell>
        <mxCell id="1SKHvmBTWvtFecMXki6V-13" value="获取摄像机&lt;br&gt;火灾&lt;span style=&quot;background-color: initial;&quot;&gt;检测结果&lt;/span&gt;" style="rounded=0;whiteSpace=wrap;html=1;" vertex="1" parent="1">
          <mxGeometry x="1050" y="760" width="120" height="60" as="geometry" />
        </mxCell>
        <mxCell id="1SKHvmBTWvtFecMXki6V-16" style="edgeStyle=orthogonalEdgeStyle;rounded=0;orthogonalLoop=1;jettySize=auto;html=1;exitX=0.5;exitY=1;exitDx=0;exitDy=0;" edge="1" parent="1" source="1SKHvmBTWvtFecMXki6V-15" target="1SKHvmBTWvtFecMXki6V-17">
          <mxGeometry relative="1" as="geometry">
            <mxPoint x="1110" y="1020" as="targetPoint" />
          </mxGeometry>
        </mxCell>
        <mxCell id="1SKHvmBTWvtFecMXki6V-15" value="按照间隔时间获取" style="rounded=0;whiteSpace=wrap;html=1;" vertex="1" parent="1">
          <mxGeometry x="1050" y="880" width="120" height="60" as="geometry" />
        </mxCell>
        <mxCell id="1SKHvmBTWvtFecMXki6V-22" style="edgeStyle=orthogonalEdgeStyle;rounded=0;orthogonalLoop=1;jettySize=auto;html=1;exitX=0.5;exitY=1;exitDx=0;exitDy=0;" edge="1" parent="1" source="1SKHvmBTWvtFecMXki6V-17" target="1SKHvmBTWvtFecMXki6V-23">
          <mxGeometry relative="1" as="geometry">
            <mxPoint x="1110" y="1220" as="targetPoint" />
          </mxGeometry>
        </mxCell>
        <mxCell id="1SKHvmBTWvtFecMXki6V-17" value="获取节点当前状态和图像" style="rounded=0;whiteSpace=wrap;html=1;" vertex="1" parent="1">
          <mxGeometry x="1050" y="990" width="120" height="60" as="geometry" />
        </mxCell>
        <mxCell id="1SKHvmBTWvtFecMXki6V-24" style="edgeStyle=orthogonalEdgeStyle;rounded=0;orthogonalLoop=1;jettySize=auto;html=1;exitX=0.25;exitY=0.5;exitDx=0;exitDy=0;exitPerimeter=0;" edge="1" parent="1" source="1SKHvmBTWvtFecMXki6V-23" target="1SKHvmBTWvtFecMXki6V-26">
          <mxGeometry relative="1" as="geometry">
            <mxPoint x="1070" y="1285" as="targetPoint" />
          </mxGeometry>
        </mxCell>
        <mxCell id="1SKHvmBTWvtFecMXki6V-25" style="edgeStyle=orthogonalEdgeStyle;rounded=0;orthogonalLoop=1;jettySize=auto;html=1;exitX=0.75;exitY=0.5;exitDx=0;exitDy=0;exitPerimeter=0;" edge="1" parent="1" source="1SKHvmBTWvtFecMXki6V-23" target="1SKHvmBTWvtFecMXki6V-27">
          <mxGeometry relative="1" as="geometry">
            <mxPoint x="1340" y="1255" as="targetPoint" />
          </mxGeometry>
        </mxCell>
        <mxCell id="1SKHvmBTWvtFecMXki6V-23" value="" style="line;strokeWidth=2;html=1;" vertex="1" parent="1">
          <mxGeometry x="1030" y="1100" width="160" height="10" as="geometry" />
        </mxCell>
        <mxCell id="1SKHvmBTWvtFecMXki6V-28" style="edgeStyle=orthogonalEdgeStyle;rounded=0;orthogonalLoop=1;jettySize=auto;html=1;exitX=0.5;exitY=1;exitDx=0;exitDy=0;entryX=0.502;entryY=0.262;entryDx=0;entryDy=0;entryPerimeter=0;" edge="1" parent="1" source="1SKHvmBTWvtFecMXki6V-26" target="1SKHvmBTWvtFecMXki6V-30">
          <mxGeometry relative="1" as="geometry">
            <mxPoint x="1120" y="1365" as="targetPoint" />
          </mxGeometry>
        </mxCell>
        <mxCell id="1SKHvmBTWvtFecMXki6V-26" value="显示图像" style="rounded=0;whiteSpace=wrap;html=1;" vertex="1" parent="1">
          <mxGeometry x="930" y="1155" width="120" height="60" as="geometry" />
        </mxCell>
        <mxCell id="1SKHvmBTWvtFecMXki6V-29" style="edgeStyle=orthogonalEdgeStyle;rounded=0;orthogonalLoop=1;jettySize=auto;html=1;exitX=0.5;exitY=1;exitDx=0;exitDy=0;" edge="1" parent="1" source="1SKHvmBTWvtFecMXki6V-27" target="1SKHvmBTWvtFecMXki6V-30">
          <mxGeometry relative="1" as="geometry">
            <mxPoint x="1120" y="1365" as="targetPoint" />
          </mxGeometry>
        </mxCell>
        <mxCell id="1SKHvmBTWvtFecMXki6V-27" value="根据节点状态显示颜色" style="rounded=0;whiteSpace=wrap;html=1;" vertex="1" parent="1">
          <mxGeometry x="1180" y="1155" width="120" height="60" as="geometry" />
        </mxCell>
        <mxCell id="1SKHvmBTWvtFecMXki6V-33" value="" style="edgeStyle=orthogonalEdgeStyle;rounded=0;orthogonalLoop=1;jettySize=auto;html=1;" edge="1" parent="1" source="1SKHvmBTWvtFecMXki6V-30" target="1SKHvmBTWvtFecMXki6V-34">
          <mxGeometry relative="1" as="geometry">
            <mxPoint x="1110" y="1369.9999999999998" as="targetPoint" />
          </mxGeometry>
        </mxCell>
        <mxCell id="1SKHvmBTWvtFecMXki6V-30" value="" style="line;strokeWidth=2;html=1;" vertex="1" parent="1">
          <mxGeometry x="1030" y="1279.9999999999998" width="160" height="10" as="geometry" />
        </mxCell>
        <mxCell id="1SKHvmBTWvtFecMXki6V-34" value="结束" style="rounded=0;whiteSpace=wrap;html=1;" vertex="1" parent="1">
          <mxGeometry x="1050" y="1340" width="120" height="60" as="geometry" />
        </mxCell>
        <mxCell id="1SKHvmBTWvtFecMXki6V-35" style="edgeStyle=orthogonalEdgeStyle;rounded=0;orthogonalLoop=1;jettySize=auto;html=1;exitX=0.5;exitY=1;exitDx=0;exitDy=0;" edge="1" parent="1" source="1SKHvmBTWvtFecMXki6V-36" target="1SKHvmBTWvtFecMXki6V-38">
          <mxGeometry relative="1" as="geometry">
            <mxPoint x="1480" y="925" as="targetPoint" />
          </mxGeometry>
        </mxCell>
        <mxCell id="1SKHvmBTWvtFecMXki6V-36" value="获取着火点中心" style="rounded=0;whiteSpace=wrap;html=1;" vertex="1" parent="1">
          <mxGeometry x="1420" y="765" width="120" height="60" as="geometry" />
        </mxCell>
        <mxCell id="1SKHvmBTWvtFecMXki6V-37" style="edgeStyle=orthogonalEdgeStyle;rounded=0;orthogonalLoop=1;jettySize=auto;html=1;exitX=0.5;exitY=1;exitDx=0;exitDy=0;" edge="1" parent="1" source="1SKHvmBTWvtFecMXki6V-38" target="1SKHvmBTWvtFecMXki6V-40">
          <mxGeometry relative="1" as="geometry">
            <mxPoint x="1480" y="1055" as="targetPoint" />
          </mxGeometry>
        </mxCell>
        <mxCell id="1SKHvmBTWvtFecMXki6V-38" value="按照间隔时间获取" style="rounded=0;whiteSpace=wrap;html=1;" vertex="1" parent="1">
          <mxGeometry x="1420" y="895" width="120" height="60" as="geometry" />
        </mxCell>
        <mxCell id="1SKHvmBTWvtFecMXki6V-39" style="edgeStyle=orthogonalEdgeStyle;rounded=0;orthogonalLoop=1;jettySize=auto;html=1;exitX=0.5;exitY=1;exitDx=0;exitDy=0;" edge="1" parent="1" source="1SKHvmBTWvtFecMXki6V-40" target="1SKHvmBTWvtFecMXki6V-41">
          <mxGeometry relative="1" as="geometry">
            <mxPoint x="1480" y="1185" as="targetPoint" />
          </mxGeometry>
        </mxCell>
        <mxCell id="1SKHvmBTWvtFecMXki6V-40" value="显示火灾中心点" style="rounded=0;whiteSpace=wrap;html=1;" vertex="1" parent="1">
          <mxGeometry x="1420" y="1045" width="120" height="60" as="geometry" />
        </mxCell>
        <mxCell id="1SKHvmBTWvtFecMXki6V-41" value="结束" style="rounded=0;whiteSpace=wrap;html=1;" vertex="1" parent="1">
          <mxGeometry x="1420" y="1155" width="120" height="60" as="geometry" />
        </mxCell>
        <mxCell id="1SKHvmBTWvtFecMXki6V-43" style="edgeStyle=orthogonalEdgeStyle;rounded=0;orthogonalLoop=1;jettySize=auto;html=1;exitX=0.5;exitY=0;exitDx=0;exitDy=0;shape=flexArrow;" edge="1" parent="1" source="1SKHvmBTWvtFecMXki6V-42" target="T_Ptdm1HrB9L-p87L4nu-17">
          <mxGeometry relative="1" as="geometry">
            <Array as="points">
              <mxPoint x="390" y="200" />
              <mxPoint x="390" y="200" />
            </Array>
          </mxGeometry>
        </mxCell>
        <mxCell id="1SKHvmBTWvtFecMXki6V-42" value="注册" style="ellipse;whiteSpace=wrap;html=1;" vertex="1" parent="1">
          <mxGeometry x="330" y="240" width="120" height="80" as="geometry" />
        </mxCell>
      </root>
    </mxGraphModel>
  </diagram>
</mxfile>
